<svg width="21" height="21" viewBox="0 0 21 21" fill="none" xmlns="http://www.w3.org/2000/svg">
<path fill-rule="evenodd" clip-rule="evenodd" d="M2.33333 0C1.71449 0 1.121 0.245833 0.683417 0.683417C0.245833 1.121 0 1.71449 0 2.33333V18.6667C0 19.2855 0.245833 19.879 0.683417 20.3166C1.121 20.7542 1.71449 21 2.33333 21H18.6667C19.2855 21 19.879 20.7542 20.3166 20.3166C20.7542 19.879 21 19.2855 21 18.6667V2.33333C21 1.71449 20.7542 1.121 20.3166 0.683417C19.879 0.245833 19.2855 0 18.6667 0H2.33333ZM16.275 7.92867C16.4939 7.70991 16.617 7.41314 16.6171 7.10366C16.6172 6.79418 16.4943 6.49733 16.2756 6.27842C16.0568 6.0595 15.7601 5.93646 15.4506 5.93635C15.1411 5.93624 14.8442 6.05907 14.6253 6.27783L8.85033 12.0528L6.37583 9.57833C6.26751 9.46994 6.13891 9.38394 5.99735 9.32525C5.8558 9.26655 5.70407 9.23632 5.55083 9.23626C5.24135 9.23615 4.9445 9.35899 4.72558 9.57775C4.50667 9.79651 4.38362 10.0933 4.38351 10.4028C4.3834 10.7122 4.50624 11.0091 4.725 11.228L7.94267 14.4457C8.06184 14.5649 8.20334 14.6595 8.35908 14.724C8.51482 14.7885 8.68175 14.8218 8.85033 14.8218C9.01891 14.8218 9.18584 14.7885 9.34158 14.724C9.49732 14.6595 9.63882 14.5649 9.758 14.4457L16.275 7.92867Z" fill="#9650FA"/>
</svg>
