<svg width="28" height="28" viewBox="0 0 28 28" fill="none" xmlns="http://www.w3.org/2000/svg">
<path d="M4.5 4.66659C4.5 4.04775 4.74583 3.45425 5.18342 3.01667C5.621 2.57908 6.21449 2.33325 6.83333 2.33325H9.16667C9.59133 2.33325 9.99033 2.44642 10.3333 2.64592C10.688 2.44111 11.0904 2.33327 11.5 2.33325H13.8333C14.6815 2.33325 15.4247 2.78592 15.833 3.46375C16.078 3.26775 16.365 3.11842 16.687 3.03209L18.941 2.42892C19.237 2.34952 19.5457 2.32921 19.8496 2.36914C20.1534 2.40908 20.4465 2.50848 20.7119 2.66167C20.9773 2.81486 21.21 3.01884 21.3965 3.26196C21.5831 3.50507 21.72 3.78257 21.7993 4.07859L26.6293 22.1094C26.7087 22.4054 26.729 22.7142 26.6891 23.018C26.6492 23.3219 26.5498 23.6149 26.3966 23.8803C26.2434 24.1457 26.0394 24.3784 25.7963 24.565C25.5532 24.7516 25.2757 24.8884 24.9797 24.9678L22.7257 25.5709C22.4297 25.6503 22.1209 25.6706 21.8171 25.6307C21.5132 25.5908 21.2202 25.4914 20.9548 25.3382C20.6894 25.185 20.4567 24.981 20.2701 24.7379C20.0835 24.4948 19.9467 24.2173 19.8673 23.9213L16.1667 10.1068V23.3333C16.1667 23.9521 15.9208 24.5456 15.4832 24.9832C15.0457 25.4208 14.4522 25.6666 13.8333 25.6666H11.5C11.0904 25.6666 10.688 25.5587 10.3333 25.3539C9.97863 25.5587 9.57626 25.6666 9.16667 25.6666H6.83333C6.21449 25.6666 5.621 25.4208 5.18342 24.9832C4.74583 24.5456 4.5 23.9521 4.5 23.3333V4.66659Z" fill="#8E49F9"/>
<rect width="0.5" height="24" transform="translate(10 2)" fill="white"/>
<rect width="0.5" height="9.10542" transform="translate(15.5137 2.90552) rotate(-4)" fill="white"/>
</svg>
