<svg width="28" height="28" viewBox="0 0 28 28" fill="none" xmlns="http://www.w3.org/2000/svg">
<path d="M11.8008 25.4462C12.5078 26.0295 13.2452 26.5627 14 27.083C14.7565 26.5696 15.4902 26.0235 16.1992 25.4462C17.381 24.4758 18.4932 23.4236 19.5277 22.2974C21.9123 19.6899 24.5 15.9099 24.5 11.6667C24.5 10.2878 24.2284 8.92243 23.7007 7.64851C23.1731 6.37459 22.3996 5.21708 21.4246 4.24207C20.4496 3.26705 19.2921 2.49363 18.0182 1.96595C16.7443 1.43828 15.3789 1.16669 14 1.16669C12.6211 1.16669 11.2557 1.43828 9.98182 1.96595C8.70791 2.49363 7.55039 3.26705 6.57538 4.24207C5.60036 5.21708 4.82694 6.37459 4.29926 7.64851C3.77159 8.92243 3.5 10.2878 3.5 11.6667C3.5 15.9099 6.08767 19.6887 8.47233 22.2974C9.50672 23.424 10.619 24.4754 11.8008 25.4462ZM14 15.4584C12.9944 15.4584 12.03 15.0589 11.3189 14.3478C10.6078 13.6367 10.2083 12.6723 10.2083 11.6667C10.2083 10.6611 10.6078 9.69665 11.3189 8.98557C12.03 8.2745 12.9944 7.87502 14 7.87502C15.0056 7.87502 15.97 8.2745 16.6811 8.98557C17.3922 9.69665 17.7917 10.6611 17.7917 11.6667C17.7917 12.6723 17.3922 13.6367 16.6811 14.3478C15.97 15.0589 15.0056 15.4584 14 15.4584Z" fill="#9650FA"/>
</svg>
