<svg width="88" height="91" viewBox="0 0 88 91" fill="none" xmlns="http://www.w3.org/2000/svg">
<g id="&#225;&#132;&#133;&#225;&#133;&#169;&#225;&#132;&#128;&#225;&#133;&#169;-Light 1" clip-path="url(#clip0_11386_32292)">
<path id="Vector" fill-rule="evenodd" clip-rule="evenodd" d="M47.5358 59.2409C59.2554 54.9385 67.6127 43.7207 67.6127 30.5597C67.6127 13.6821 53.8688 0 36.915 0C19.9611 0 6.2173 13.6821 6.2173 30.5597C6.2173 42.5031 13.0997 52.8463 23.1317 57.8732L11.5658 69.3848L8.23598 66.3196C6.2461 64.4878 3.14125 64.6087 1.30115 66.5897C-0.310984 68.3254 -0.455188 70.9718 1.0375 72.8102C5.68296 78.5316 9.60544 82.0535 15.4987 86.1003C17.458 87.4456 20.1077 87.106 21.7238 85.3662C22.0897 84.9723 22.3778 84.5342 22.5888 84.0711L47.5358 59.2409Z" fill="#8C8A8F"/>
<path id="Vector_2" d="M82.4614 70.2697C83.7487 72.0931 83.5263 74.5888 81.8727 76.091C77.0068 80.5133 72.9745 83.2454 67.0815 86.3896C65.0981 87.4483 62.641 86.831 61.347 84.9981C59.9093 82.9622 60.4021 80.1514 62.4475 78.7198L76.1029 69.1655C78.1651 67.7224 81.0118 68.2168 82.4614 70.2697Z" fill="#9D9CA0"/>
<path id="Vector_3" d="M81.3774 69.2537L65.2009 45.8262C63.0907 50.2346 57.1796 56.5396 50.8755 59.7478L70.664 79.0342L81.3774 69.2537Z" fill="#9D9CA0"/>
<path id="Vector_4" d="M14.643 38.4652C14.02 38.7629 13.7532 39.5098 14.098 40.106C14.7788 41.2836 15.599 42.368 16.5322 43.3214C17.7498 44.5654 19.1361 45.5621 20.6118 46.2545C22.0875 46.9468 23.6237 47.3214 25.1327 47.3567C26.6417 47.392 28.0939 47.0875 29.4066 46.4604C30.7192 45.8333 31.8664 44.896 32.7828 43.702C33.6992 42.5079 34.3668 41.0806 34.7474 39.5014C35.1281 37.9222 35.2144 36.2221 35.0013 34.4981C34.838 33.1769 34.5014 31.8615 34.0045 30.596C33.7529 29.9553 33.0007 29.6952 32.3776 29.9929C31.7546 30.2904 31.4982 31.033 31.7356 31.6791C32.0659 32.5776 32.2924 33.5056 32.4075 34.4374C32.5725 35.7722 32.5057 37.0885 32.211 38.3113C31.9162 39.534 31.3993 40.6392 30.6898 41.5637C29.9803 42.4882 29.092 43.2139 28.0757 43.6995C27.0594 44.185 25.9349 44.4208 24.7665 44.3935C23.5981 44.3661 22.4087 44.0761 21.2661 43.54C20.1235 43.0039 19.0501 42.2323 18.1073 41.269C17.4492 40.5967 16.8636 39.8402 16.3661 39.0216C16.0084 38.433 15.2661 38.1676 14.643 38.4652Z" fill="white"/>
<path id="Vector_5" d="M12.3564 31.2387C13.8634 31.2387 15.0851 30.0226 15.0851 28.5223C15.0851 27.0221 13.8634 25.8059 12.3564 25.8059C10.8494 25.8059 9.62769 27.0221 9.62769 28.5223C9.62769 30.0226 10.8494 31.2387 12.3564 31.2387Z" fill="white"/>
<path id="Vector_6" d="M28.1605 18.1067L24.6346 24.6099C24.3599 25.1165 24.8034 25.7123 25.3702 25.598L31.7431 24.3134" stroke="white" stroke-width="3" stroke-linecap="round"/>
</g>
<defs>
<clipPath id="clip0_11386_32292">
<rect width="88" height="91" fill="white"/>
</clipPath>
</defs>
</svg>
