<svg width="29" height="29" viewBox="0 0 29 29" fill="none" xmlns="http://www.w3.org/2000/svg">
<path d="M6.04167 26.5832C5.37708 26.5832 4.80816 26.3465 4.3349 25.8733C3.86163 25.4 3.625 24.8311 3.625 24.1665V7.24984C3.625 6.58525 3.86163 6.01633 4.3349 5.54307C4.80816 5.0698 5.37708 4.83317 6.04167 4.83317H7.25V3.62484C7.25 3.28248 7.3658 2.9955 7.5974 2.7639C7.82899 2.5323 8.11597 2.4165 8.45833 2.4165C8.80069 2.4165 9.08767 2.5323 9.31927 2.7639C9.55087 2.9955 9.66667 3.28248 9.66667 3.62484V4.83317H19.3333V3.62484C19.3333 3.28248 19.4491 2.9955 19.6807 2.7639C19.9123 2.5323 20.1993 2.4165 20.5417 2.4165C20.884 2.4165 21.171 2.5323 21.4026 2.7639C21.6342 2.9955 21.75 3.28248 21.75 3.62484V4.83317H22.9583C23.6229 4.83317 24.1918 5.0698 24.6651 5.54307C25.1384 6.01633 25.375 6.58525 25.375 7.24984V12.1134C25.375 12.4557 25.2592 12.7427 25.0276 12.9743C24.796 13.2059 24.509 13.3217 24.1667 13.3217C23.8243 13.3217 23.5373 13.2059 23.3057 12.9743C23.0741 12.7427 22.9583 12.4557 22.9583 12.1134V12.0832H6.04167V24.1665H13.2917C13.634 24.1665 13.921 24.2823 14.1526 24.5139C14.3842 24.7455 14.5 25.0325 14.5 25.3748C14.5 25.7172 14.3842 26.0042 14.1526 26.2358C13.921 26.4674 13.634 26.5832 13.2917 26.5832H6.04167ZM16.9167 25.3748V23.3811C16.9167 23.22 16.9469 23.0639 17.0073 22.9129C17.0677 22.7618 17.1583 22.6259 17.2792 22.505L23.5927 16.2217C23.774 16.0405 23.9753 15.9096 24.1969 15.829C24.4184 15.7484 24.6399 15.7082 24.8615 15.7082C25.1031 15.7082 25.3347 15.7535 25.5562 15.8441C25.7778 15.9347 25.9792 16.0707 26.1604 16.2519L27.2781 17.3696C27.4392 17.5509 27.5651 17.7523 27.6557 17.9738C27.7464 18.1953 27.7917 18.4169 27.7917 18.6384C27.7917 18.8599 27.7514 19.0865 27.6708 19.3181C27.5903 19.5497 27.4594 19.7561 27.2781 19.9373L20.9948 26.2207C20.874 26.3415 20.738 26.4321 20.587 26.4925C20.4359 26.553 20.2799 26.5832 20.1187 26.5832H18.125C17.7826 26.5832 17.4957 26.4674 17.2641 26.2358C17.0325 26.0042 16.9167 25.7172 16.9167 25.3748ZM24.8615 19.8165L25.9792 18.6384L24.8615 17.5207L23.7135 18.6686L24.8615 19.8165Z" fill="#8E49F9"/>
</svg>
